# xmcd
#
# Track frame offsets: 
#        150
#        11006
#        21697
#        33241
#        41758
#        52143
#        61439
#        72663
#        84154
#        92448
#        102953
#        112844
#        122689
#        132714
#        143849
#        153853
#        167710
#        177950
#        188310
#        198632
#        209277
#        220142
#        231372
#        246270
#
# Disc length: 3408 seconds
#
# Revision: 1
# Processed by: cddbd v1.5.2PL0 Copyright (c) Steve Scherf et al.
# Submitted via: ExactAudioCopyFreeDBPlugin 1.0
#
DISCID=590d4e18
DTITLE=The Everly Brothers - The Works [CD1]
DYEAR=2007
DGENRE=Oldies
TTITLE0=Cathy's Clown
TTITLE1=Sleepless Nights
TTITLE2=So Sad (To Watch Good Love Go Bad)
TTITLE3=What Kind of Girl Are You
TTITLE4=Baby What You Want Me to Do
TTITLE5=You Thrill Me (Through and Through)
TTITLE6=Lucille
TTITLE7=Memories Are Made of This
TTITLE8=Carol Jane
TTITLE9=Love Hurts
TTITLE10=Just in Case
TTITLE11=Oh, True Love
TTITLE12=Donna Donna
TTITLE13=Always Its You
TTITLE14=Temptation
TTITLE15=Ebony Eyes
TTITLE16=Sigh, Cry, Almost Die
TTITLE17=Walk Right Back
TTITLE18=Muskrat
TTITLE19=The Wayward Wind
TTITLE20=Don't Blame Me
TTITLE21=When I Grow to Old to Dream
TTITLE22=Bye Bye Blackbird
TTITLE23=No One Can Make My Sunshine Smile
EXTD=
EXTT0=
EXTT1=
EXTT2=
EXTT3=
EXTT4=
EXTT5=
EXTT6=
EXTT7=
EXTT8=
EXTT9=
EXTT10=
EXTT11=
EXTT12=
EXTT13=
EXTT14=
EXTT15=
EXTT16=
EXTT17=
EXTT18=
EXTT19=
EXTT20=
EXTT21=
EXTT22=
EXTT23=
PLAYORDER=
